<mxfile host="app.diagrams.net" modified="2021-12-06T20:14:54.752Z" agent="5.0 (Windows NT 10.0; Win64; x64) AppleWebKit/537.36 (KHTML, like Gecko) Chrome/96.0.4664.45 Safari/537.36" etag="C6lRDVnVfMzIA2wBOpgK" version="15.9.1" type="github">
  <diagram name="Page-1" id="42789a77-a242-8287-6e28-9cd8cfd52e62">
    <mxGraphModel dx="1038" dy="521" grid="1" gridSize="10" guides="1" tooltips="1" connect="1" arrows="1" fold="1" page="1" pageScale="1" pageWidth="850" pageHeight="1100" background="none" math="0" shadow="0">
      <root>
        <mxCell id="0" />
        <mxCell id="1" parent="0" />
        <mxCell id="kWRuAzzF74EICB1AyUhk-26" style="edgeStyle=orthogonalEdgeStyle;rounded=1;orthogonalLoop=1;jettySize=auto;html=1;exitX=1;exitY=0.5;exitDx=0;exitDy=0;entryX=-0.019;entryY=0.55;entryDx=0;entryDy=0;entryPerimeter=0;" parent="1" source="kWRuAzzF74EICB1AyUhk-1" target="kWRuAzzF74EICB1AyUhk-15" edge="1">
          <mxGeometry relative="1" as="geometry" />
        </mxCell>
        <mxCell id="kWRuAzzF74EICB1AyUhk-27" style="edgeStyle=orthogonalEdgeStyle;rounded=1;orthogonalLoop=1;jettySize=auto;html=1;exitX=1;exitY=0.5;exitDx=0;exitDy=0;entryX=-0.006;entryY=0.49;entryDx=0;entryDy=0;entryPerimeter=0;" parent="1" source="kWRuAzzF74EICB1AyUhk-1" target="kWRuAzzF74EICB1AyUhk-16" edge="1">
          <mxGeometry relative="1" as="geometry" />
        </mxCell>
        <mxCell id="kWRuAzzF74EICB1AyUhk-28" style="edgeStyle=orthogonalEdgeStyle;rounded=1;orthogonalLoop=1;jettySize=auto;html=1;exitX=1;exitY=0.5;exitDx=0;exitDy=0;entryX=0;entryY=0.5;entryDx=0;entryDy=0;" parent="1" source="kWRuAzzF74EICB1AyUhk-1" target="kWRuAzzF74EICB1AyUhk-17" edge="1">
          <mxGeometry relative="1" as="geometry" />
        </mxCell>
        <mxCell id="kWRuAzzF74EICB1AyUhk-29" style="edgeStyle=orthogonalEdgeStyle;rounded=1;orthogonalLoop=1;jettySize=auto;html=1;exitX=1;exitY=0.5;exitDx=0;exitDy=0;entryX=0;entryY=0.5;entryDx=0;entryDy=0;" parent="1" source="kWRuAzzF74EICB1AyUhk-1" target="kWRuAzzF74EICB1AyUhk-19" edge="1">
          <mxGeometry relative="1" as="geometry" />
        </mxCell>
        <mxCell id="kWRuAzzF74EICB1AyUhk-1" value="Верхний блок" style="rounded=1;whiteSpace=wrap;html=1;" parent="1" vertex="1">
          <mxGeometry x="170" y="30" width="120" height="60" as="geometry" />
        </mxCell>
        <mxCell id="kWRuAzzF74EICB1AyUhk-30" style="edgeStyle=orthogonalEdgeStyle;rounded=1;orthogonalLoop=1;jettySize=auto;html=1;exitX=1;exitY=0.5;exitDx=0;exitDy=0;entryX=0;entryY=0.5;entryDx=0;entryDy=0;" parent="1" source="kWRuAzzF74EICB1AyUhk-2" target="kWRuAzzF74EICB1AyUhk-18" edge="1">
          <mxGeometry relative="1" as="geometry" />
        </mxCell>
        <mxCell id="kWRuAzzF74EICB1AyUhk-31" style="edgeStyle=orthogonalEdgeStyle;rounded=1;orthogonalLoop=1;jettySize=auto;html=1;exitX=1;exitY=0.5;exitDx=0;exitDy=0;entryX=0;entryY=0.5;entryDx=0;entryDy=0;" parent="1" source="kWRuAzzF74EICB1AyUhk-2" target="kWRuAzzF74EICB1AyUhk-20" edge="1">
          <mxGeometry relative="1" as="geometry" />
        </mxCell>
        <mxCell id="kWRuAzzF74EICB1AyUhk-32" style="edgeStyle=orthogonalEdgeStyle;rounded=1;orthogonalLoop=1;jettySize=auto;html=1;exitX=1;exitY=0.5;exitDx=0;exitDy=0;entryX=0;entryY=0.5;entryDx=0;entryDy=0;" parent="1" source="kWRuAzzF74EICB1AyUhk-2" target="kWRuAzzF74EICB1AyUhk-21" edge="1">
          <mxGeometry relative="1" as="geometry" />
        </mxCell>
        <mxCell id="kWRuAzzF74EICB1AyUhk-2" value="Форма предзаказа" style="rounded=1;whiteSpace=wrap;html=1;" parent="1" vertex="1">
          <mxGeometry x="170" y="360" width="120" height="60" as="geometry" />
        </mxCell>
        <mxCell id="kWRuAzzF74EICB1AyUhk-42" style="edgeStyle=orthogonalEdgeStyle;rounded=1;orthogonalLoop=1;jettySize=auto;html=1;exitX=1;exitY=0.5;exitDx=0;exitDy=0;entryX=0;entryY=0.5;entryDx=0;entryDy=0;" parent="1" source="kWRuAzzF74EICB1AyUhk-3" target="kWRuAzzF74EICB1AyUhk-38" edge="1">
          <mxGeometry relative="1" as="geometry" />
        </mxCell>
        <mxCell id="kWRuAzzF74EICB1AyUhk-43" style="edgeStyle=orthogonalEdgeStyle;rounded=1;orthogonalLoop=1;jettySize=auto;html=1;exitX=1;exitY=0.5;exitDx=0;exitDy=0;entryX=0;entryY=0.5;entryDx=0;entryDy=0;" parent="1" source="kWRuAzzF74EICB1AyUhk-3" target="kWRuAzzF74EICB1AyUhk-39" edge="1">
          <mxGeometry relative="1" as="geometry" />
        </mxCell>
        <mxCell id="kWRuAzzF74EICB1AyUhk-44" style="edgeStyle=orthogonalEdgeStyle;rounded=1;orthogonalLoop=1;jettySize=auto;html=1;exitX=1;exitY=0.5;exitDx=0;exitDy=0;entryX=0;entryY=0.5;entryDx=0;entryDy=0;" parent="1" source="kWRuAzzF74EICB1AyUhk-3" target="kWRuAzzF74EICB1AyUhk-40" edge="1">
          <mxGeometry relative="1" as="geometry" />
        </mxCell>
        <mxCell id="kWRuAzzF74EICB1AyUhk-45" style="edgeStyle=orthogonalEdgeStyle;rounded=1;orthogonalLoop=1;jettySize=auto;html=1;exitX=1;exitY=0.5;exitDx=0;exitDy=0;entryX=0;entryY=0.5;entryDx=0;entryDy=0;" parent="1" source="kWRuAzzF74EICB1AyUhk-3" target="kWRuAzzF74EICB1AyUhk-41" edge="1">
          <mxGeometry relative="1" as="geometry" />
        </mxCell>
        <mxCell id="kWRuAzzF74EICB1AyUhk-3" value="Нижний блок" style="rounded=1;whiteSpace=wrap;html=1;" parent="1" vertex="1">
          <mxGeometry x="170" y="1520" width="120" height="60" as="geometry" />
        </mxCell>
        <mxCell id="kWRuAzzF74EICB1AyUhk-23" style="edgeStyle=orthogonalEdgeStyle;rounded=1;orthogonalLoop=1;jettySize=auto;html=1;exitX=1;exitY=0.5;exitDx=0;exitDy=0;entryX=0;entryY=0.5;entryDx=0;entryDy=0;" parent="1" source="kWRuAzzF74EICB1AyUhk-4" target="kWRuAzzF74EICB1AyUhk-1" edge="1">
          <mxGeometry relative="1" as="geometry" />
        </mxCell>
        <mxCell id="kWRuAzzF74EICB1AyUhk-24" style="edgeStyle=orthogonalEdgeStyle;rounded=1;orthogonalLoop=1;jettySize=auto;html=1;exitX=1;exitY=0.5;exitDx=0;exitDy=0;entryX=0;entryY=0.5;entryDx=0;entryDy=0;" parent="1" source="kWRuAzzF74EICB1AyUhk-4" target="kWRuAzzF74EICB1AyUhk-2" edge="1">
          <mxGeometry relative="1" as="geometry" />
        </mxCell>
        <mxCell id="kWRuAzzF74EICB1AyUhk-25" style="edgeStyle=orthogonalEdgeStyle;rounded=1;orthogonalLoop=1;jettySize=auto;html=1;exitX=1;exitY=0.5;exitDx=0;exitDy=0;entryX=0;entryY=0.5;entryDx=0;entryDy=0;" parent="1" source="kWRuAzzF74EICB1AyUhk-4" target="kWRuAzzF74EICB1AyUhk-3" edge="1">
          <mxGeometry relative="1" as="geometry" />
        </mxCell>
        <mxCell id="kWRuAzzF74EICB1AyUhk-4" value="Промо-страница&lt;br&gt;Яндекс-самоката" style="rounded=1;whiteSpace=wrap;html=1;" parent="1" vertex="1">
          <mxGeometry x="10" y="360" width="120" height="60" as="geometry" />
        </mxCell>
        <mxCell id="kWRuAzzF74EICB1AyUhk-15" value="Счетчик времени до релиза" style="text;html=1;align=left;verticalAlign=middle;resizable=0;points=[];autosize=1;strokeColor=none;fillColor=none;" parent="1" vertex="1">
          <mxGeometry x="385" y="20" width="170" height="20" as="geometry" />
        </mxCell>
        <mxCell id="kWRuAzzF74EICB1AyUhk-16" value="Кнопка &quot;Предзаказ&quot;" style="text;html=1;align=left;verticalAlign=middle;resizable=0;points=[];autosize=1;strokeColor=none;fillColor=none;" parent="1" vertex="1">
          <mxGeometry x="385" y="50" width="130" height="20" as="geometry" />
        </mxCell>
        <mxCell id="kWRuAzzF74EICB1AyUhk-17" value="Кнопка &quot;Подробнее&quot;" style="text;html=1;strokeColor=none;fillColor=none;align=left;verticalAlign=middle;whiteSpace=wrap;rounded=0;" parent="1" vertex="1">
          <mxGeometry x="385" y="70" width="140" height="30" as="geometry" />
        </mxCell>
        <mxCell id="kWRuAzzF74EICB1AyUhk-18" value="Счетчик количества подписавшихся человек" style="text;html=1;strokeColor=none;fillColor=none;align=left;verticalAlign=middle;whiteSpace=wrap;rounded=0;" parent="1" vertex="1">
          <mxGeometry x="330" y="150" width="60" height="30" as="geometry" />
        </mxCell>
        <mxCell id="kWRuAzzF74EICB1AyUhk-19" value="Текст &quot;Новое поколение самокатов&quot;" style="text;html=1;strokeColor=none;fillColor=none;align=left;verticalAlign=middle;whiteSpace=wrap;rounded=0;" parent="1" vertex="1">
          <mxGeometry x="385" y="100" width="210" height="30" as="geometry" />
        </mxCell>
        <mxCell id="kWRuAzzF74EICB1AyUhk-60" style="edgeStyle=orthogonalEdgeStyle;rounded=1;orthogonalLoop=1;jettySize=auto;html=1;exitX=1;exitY=0.5;exitDx=0;exitDy=0;entryX=0;entryY=0.5;entryDx=0;entryDy=0;" parent="1" source="kWRuAzzF74EICB1AyUhk-20" target="kWRuAzzF74EICB1AyUhk-46" edge="1">
          <mxGeometry relative="1" as="geometry" />
        </mxCell>
        <mxCell id="kWRuAzzF74EICB1AyUhk-61" style="edgeStyle=orthogonalEdgeStyle;rounded=1;orthogonalLoop=1;jettySize=auto;html=1;exitX=1;exitY=0.5;exitDx=0;exitDy=0;entryX=0;entryY=0.75;entryDx=0;entryDy=0;" parent="1" source="kWRuAzzF74EICB1AyUhk-20" target="kWRuAzzF74EICB1AyUhk-47" edge="1">
          <mxGeometry relative="1" as="geometry" />
        </mxCell>
        <mxCell id="kWRuAzzF74EICB1AyUhk-62" style="edgeStyle=orthogonalEdgeStyle;rounded=1;orthogonalLoop=1;jettySize=auto;html=1;exitX=1;exitY=0.5;exitDx=0;exitDy=0;entryX=0;entryY=0.5;entryDx=0;entryDy=0;" parent="1" source="kWRuAzzF74EICB1AyUhk-20" target="kWRuAzzF74EICB1AyUhk-48" edge="1">
          <mxGeometry relative="1" as="geometry" />
        </mxCell>
        <mxCell id="kWRuAzzF74EICB1AyUhk-63" style="edgeStyle=orthogonalEdgeStyle;rounded=1;orthogonalLoop=1;jettySize=auto;html=1;exitX=1;exitY=0.5;exitDx=0;exitDy=0;entryX=0;entryY=0.75;entryDx=0;entryDy=0;" parent="1" source="kWRuAzzF74EICB1AyUhk-20" target="kWRuAzzF74EICB1AyUhk-49" edge="1">
          <mxGeometry relative="1" as="geometry" />
        </mxCell>
        <mxCell id="kWRuAzzF74EICB1AyUhk-64" style="edgeStyle=orthogonalEdgeStyle;rounded=1;orthogonalLoop=1;jettySize=auto;html=1;exitX=1;exitY=0.5;exitDx=0;exitDy=0;entryX=0;entryY=0.75;entryDx=0;entryDy=0;" parent="1" source="kWRuAzzF74EICB1AyUhk-20" target="kWRuAzzF74EICB1AyUhk-50" edge="1">
          <mxGeometry relative="1" as="geometry" />
        </mxCell>
        <mxCell id="kWRuAzzF74EICB1AyUhk-20" value="Поля формы" style="text;html=1;strokeColor=none;fillColor=none;align=left;verticalAlign=middle;whiteSpace=wrap;rounded=0;" parent="1" vertex="1">
          <mxGeometry x="330" y="375" width="40" height="30" as="geometry" />
        </mxCell>
        <mxCell id="OT8h6ND0oOC6i0YVm0AJ-3" style="edgeStyle=orthogonalEdgeStyle;rounded=1;orthogonalLoop=1;jettySize=auto;html=1;exitX=1;exitY=0.5;exitDx=0;exitDy=0;entryX=0;entryY=0.5;entryDx=0;entryDy=0;" edge="1" parent="1" source="kWRuAzzF74EICB1AyUhk-21" target="OT8h6ND0oOC6i0YVm0AJ-1">
          <mxGeometry relative="1" as="geometry" />
        </mxCell>
        <mxCell id="OT8h6ND0oOC6i0YVm0AJ-4" style="edgeStyle=orthogonalEdgeStyle;rounded=1;orthogonalLoop=1;jettySize=auto;html=1;exitX=1;exitY=0.5;exitDx=0;exitDy=0;entryX=0;entryY=0.5;entryDx=0;entryDy=0;" edge="1" parent="1" source="kWRuAzzF74EICB1AyUhk-21" target="OT8h6ND0oOC6i0YVm0AJ-2">
          <mxGeometry relative="1" as="geometry" />
        </mxCell>
        <mxCell id="kWRuAzzF74EICB1AyUhk-21" value="Кнопка &quot;Заказать&quot;" style="text;html=1;strokeColor=none;fillColor=none;align=center;verticalAlign=middle;whiteSpace=wrap;rounded=0;" parent="1" vertex="1">
          <mxGeometry x="330" y="1350" width="60" height="30" as="geometry" />
        </mxCell>
        <mxCell id="kWRuAzzF74EICB1AyUhk-38" value="Язык" style="text;html=1;strokeColor=none;fillColor=none;align=left;verticalAlign=middle;whiteSpace=wrap;rounded=0;" parent="1" vertex="1">
          <mxGeometry x="360" y="1500" width="60" height="30" as="geometry" />
        </mxCell>
        <mxCell id="kWRuAzzF74EICB1AyUhk-39" value="Обратная связь" style="text;html=1;strokeColor=none;fillColor=none;align=left;verticalAlign=middle;whiteSpace=wrap;rounded=0;" parent="1" vertex="1">
          <mxGeometry x="360" y="1535" width="60" height="30" as="geometry" />
        </mxCell>
        <mxCell id="kWRuAzzF74EICB1AyUhk-40" value="Пользовательское соглашение" style="text;html=1;strokeColor=none;fillColor=none;align=left;verticalAlign=middle;whiteSpace=wrap;rounded=0;" parent="1" vertex="1">
          <mxGeometry x="360" y="1580" width="60" height="30" as="geometry" />
        </mxCell>
        <mxCell id="kWRuAzzF74EICB1AyUhk-41" value="Яндекс.Движ" style="text;html=1;strokeColor=none;fillColor=none;align=left;verticalAlign=middle;whiteSpace=wrap;rounded=0;" parent="1" vertex="1">
          <mxGeometry x="360" y="1620" width="60" height="30" as="geometry" />
        </mxCell>
        <mxCell id="kWRuAzzF74EICB1AyUhk-71" style="edgeStyle=orthogonalEdgeStyle;rounded=1;orthogonalLoop=1;jettySize=auto;html=1;exitX=1;exitY=0.5;exitDx=0;exitDy=0;entryX=0;entryY=0.5;entryDx=0;entryDy=0;" parent="1" source="kWRuAzzF74EICB1AyUhk-46" target="kWRuAzzF74EICB1AyUhk-51" edge="1">
          <mxGeometry relative="1" as="geometry" />
        </mxCell>
        <mxCell id="kWRuAzzF74EICB1AyUhk-72" style="edgeStyle=orthogonalEdgeStyle;rounded=1;orthogonalLoop=1;jettySize=auto;html=1;exitX=1;exitY=0.5;exitDx=0;exitDy=0;entryX=0;entryY=0.5;entryDx=0;entryDy=0;" parent="1" source="kWRuAzzF74EICB1AyUhk-46" target="kWRuAzzF74EICB1AyUhk-52" edge="1">
          <mxGeometry relative="1" as="geometry" />
        </mxCell>
        <mxCell id="kWRuAzzF74EICB1AyUhk-92" style="edgeStyle=orthogonalEdgeStyle;rounded=1;orthogonalLoop=1;jettySize=auto;html=1;exitX=1;exitY=0.5;exitDx=0;exitDy=0;entryX=0;entryY=0.5;entryDx=0;entryDy=0;" parent="1" source="kWRuAzzF74EICB1AyUhk-46" target="kWRuAzzF74EICB1AyUhk-88" edge="1">
          <mxGeometry relative="1" as="geometry" />
        </mxCell>
        <mxCell id="kWRuAzzF74EICB1AyUhk-46" value="Поле Имя" style="text;html=1;strokeColor=none;fillColor=none;align=left;verticalAlign=middle;whiteSpace=wrap;rounded=0;" parent="1" vertex="1">
          <mxGeometry x="430" y="200" width="45" height="30" as="geometry" />
        </mxCell>
        <mxCell id="kWRuAzzF74EICB1AyUhk-73" style="edgeStyle=orthogonalEdgeStyle;rounded=1;orthogonalLoop=1;jettySize=auto;html=1;exitX=1;exitY=0.5;exitDx=0;exitDy=0;entryX=0;entryY=0.5;entryDx=0;entryDy=0;" parent="1" source="kWRuAzzF74EICB1AyUhk-47" target="kWRuAzzF74EICB1AyUhk-65" edge="1">
          <mxGeometry relative="1" as="geometry" />
        </mxCell>
        <mxCell id="kWRuAzzF74EICB1AyUhk-74" style="edgeStyle=orthogonalEdgeStyle;rounded=1;orthogonalLoop=1;jettySize=auto;html=1;exitX=1;exitY=0.5;exitDx=0;exitDy=0;entryX=0;entryY=0.5;entryDx=0;entryDy=0;" parent="1" source="kWRuAzzF74EICB1AyUhk-47" target="kWRuAzzF74EICB1AyUhk-66" edge="1">
          <mxGeometry relative="1" as="geometry" />
        </mxCell>
        <mxCell id="kWRuAzzF74EICB1AyUhk-141" style="edgeStyle=orthogonalEdgeStyle;rounded=1;orthogonalLoop=1;jettySize=auto;html=1;exitX=1;exitY=0.5;exitDx=0;exitDy=0;entryX=0;entryY=0.5;entryDx=0;entryDy=0;" parent="1" source="kWRuAzzF74EICB1AyUhk-47" target="kWRuAzzF74EICB1AyUhk-116" edge="1">
          <mxGeometry relative="1" as="geometry" />
        </mxCell>
        <mxCell id="kWRuAzzF74EICB1AyUhk-47" value="Поле Фамилия" style="text;html=1;strokeColor=none;fillColor=none;align=left;verticalAlign=middle;whiteSpace=wrap;rounded=0;" parent="1" vertex="1">
          <mxGeometry x="430" y="310" width="60" height="30" as="geometry" />
        </mxCell>
        <mxCell id="kWRuAzzF74EICB1AyUhk-75" style="edgeStyle=orthogonalEdgeStyle;rounded=1;orthogonalLoop=1;jettySize=auto;html=1;exitX=1;exitY=0.5;exitDx=0;exitDy=0;entryX=0;entryY=0.5;entryDx=0;entryDy=0;" parent="1" source="kWRuAzzF74EICB1AyUhk-48" target="kWRuAzzF74EICB1AyUhk-67" edge="1">
          <mxGeometry relative="1" as="geometry" />
        </mxCell>
        <mxCell id="kWRuAzzF74EICB1AyUhk-76" style="edgeStyle=orthogonalEdgeStyle;rounded=1;orthogonalLoop=1;jettySize=auto;html=1;exitX=1;exitY=0.5;exitDx=0;exitDy=0;entryX=0;entryY=0.5;entryDx=0;entryDy=0;" parent="1" source="kWRuAzzF74EICB1AyUhk-48" target="kWRuAzzF74EICB1AyUhk-68" edge="1">
          <mxGeometry relative="1" as="geometry" />
        </mxCell>
        <mxCell id="kWRuAzzF74EICB1AyUhk-142" style="edgeStyle=orthogonalEdgeStyle;rounded=1;orthogonalLoop=1;jettySize=auto;html=1;exitX=1;exitY=0.5;exitDx=0;exitDy=0;entryX=0;entryY=0.5;entryDx=0;entryDy=0;" parent="1" source="kWRuAzzF74EICB1AyUhk-48" target="kWRuAzzF74EICB1AyUhk-123" edge="1">
          <mxGeometry relative="1" as="geometry" />
        </mxCell>
        <mxCell id="kWRuAzzF74EICB1AyUhk-48" value="Поле Отчество" style="text;html=1;strokeColor=none;fillColor=none;align=left;verticalAlign=middle;whiteSpace=wrap;rounded=0;" parent="1" vertex="1">
          <mxGeometry x="430" y="540" width="60" height="30" as="geometry" />
        </mxCell>
        <mxCell id="kWRuAzzF74EICB1AyUhk-77" style="edgeStyle=orthogonalEdgeStyle;rounded=1;orthogonalLoop=1;jettySize=auto;html=1;exitX=1;exitY=0.5;exitDx=0;exitDy=0;entryX=0;entryY=0.5;entryDx=0;entryDy=0;" parent="1" source="kWRuAzzF74EICB1AyUhk-49" target="kWRuAzzF74EICB1AyUhk-69" edge="1">
          <mxGeometry relative="1" as="geometry" />
        </mxCell>
        <mxCell id="kWRuAzzF74EICB1AyUhk-78" style="edgeStyle=orthogonalEdgeStyle;rounded=1;orthogonalLoop=1;jettySize=auto;html=1;exitX=1;exitY=0.5;exitDx=0;exitDy=0;entryX=0;entryY=0.5;entryDx=0;entryDy=0;" parent="1" source="kWRuAzzF74EICB1AyUhk-49" target="kWRuAzzF74EICB1AyUhk-53" edge="1">
          <mxGeometry relative="1" as="geometry" />
        </mxCell>
        <mxCell id="kWRuAzzF74EICB1AyUhk-81" style="edgeStyle=orthogonalEdgeStyle;rounded=1;orthogonalLoop=1;jettySize=auto;html=1;exitX=1;exitY=0.5;exitDx=0;exitDy=0;entryX=0;entryY=0.5;entryDx=0;entryDy=0;" parent="1" source="kWRuAzzF74EICB1AyUhk-49" target="kWRuAzzF74EICB1AyUhk-54" edge="1">
          <mxGeometry relative="1" as="geometry" />
        </mxCell>
        <mxCell id="kWRuAzzF74EICB1AyUhk-82" style="edgeStyle=orthogonalEdgeStyle;rounded=1;orthogonalLoop=1;jettySize=auto;html=1;exitX=1;exitY=0.5;exitDx=0;exitDy=0;entryX=0;entryY=0.5;entryDx=0;entryDy=0;" parent="1" source="kWRuAzzF74EICB1AyUhk-49" target="kWRuAzzF74EICB1AyUhk-55" edge="1">
          <mxGeometry relative="1" as="geometry" />
        </mxCell>
        <mxCell id="kWRuAzzF74EICB1AyUhk-83" style="edgeStyle=orthogonalEdgeStyle;rounded=1;orthogonalLoop=1;jettySize=auto;html=1;exitX=1;exitY=0.5;exitDx=0;exitDy=0;entryX=0;entryY=0.5;entryDx=0;entryDy=0;" parent="1" source="kWRuAzzF74EICB1AyUhk-49" target="kWRuAzzF74EICB1AyUhk-56" edge="1">
          <mxGeometry relative="1" as="geometry" />
        </mxCell>
        <mxCell id="kWRuAzzF74EICB1AyUhk-145" style="edgeStyle=orthogonalEdgeStyle;rounded=1;orthogonalLoop=1;jettySize=auto;html=1;exitX=1;exitY=0.5;exitDx=0;exitDy=0;entryX=0;entryY=0.5;entryDx=0;entryDy=0;" parent="1" source="kWRuAzzF74EICB1AyUhk-49" target="kWRuAzzF74EICB1AyUhk-130" edge="1">
          <mxGeometry relative="1" as="geometry" />
        </mxCell>
        <mxCell id="kWRuAzzF74EICB1AyUhk-49" value="Поле Email" style="text;html=1;strokeColor=none;fillColor=none;align=left;verticalAlign=middle;whiteSpace=wrap;rounded=0;" parent="1" vertex="1">
          <mxGeometry x="430" y="765" width="35" height="30" as="geometry" />
        </mxCell>
        <mxCell id="kWRuAzzF74EICB1AyUhk-85" style="edgeStyle=orthogonalEdgeStyle;rounded=1;orthogonalLoop=1;jettySize=auto;html=1;exitX=1;exitY=0.5;exitDx=0;exitDy=0;entryX=0;entryY=0.5;entryDx=0;entryDy=0;" parent="1" source="kWRuAzzF74EICB1AyUhk-50" target="kWRuAzzF74EICB1AyUhk-57" edge="1">
          <mxGeometry relative="1" as="geometry" />
        </mxCell>
        <mxCell id="kWRuAzzF74EICB1AyUhk-86" style="edgeStyle=orthogonalEdgeStyle;rounded=1;orthogonalLoop=1;jettySize=auto;html=1;exitX=1;exitY=0.5;exitDx=0;exitDy=0;entryX=0;entryY=0.5;entryDx=0;entryDy=0;" parent="1" source="kWRuAzzF74EICB1AyUhk-50" target="kWRuAzzF74EICB1AyUhk-58" edge="1">
          <mxGeometry relative="1" as="geometry" />
        </mxCell>
        <mxCell id="kWRuAzzF74EICB1AyUhk-87" style="edgeStyle=orthogonalEdgeStyle;rounded=1;orthogonalLoop=1;jettySize=auto;html=1;exitX=1;exitY=0.5;exitDx=0;exitDy=0;entryX=0;entryY=0.5;entryDx=0;entryDy=0;" parent="1" source="kWRuAzzF74EICB1AyUhk-50" target="kWRuAzzF74EICB1AyUhk-59" edge="1">
          <mxGeometry relative="1" as="geometry" />
        </mxCell>
        <mxCell id="kWRuAzzF74EICB1AyUhk-143" style="edgeStyle=orthogonalEdgeStyle;rounded=1;orthogonalLoop=1;jettySize=auto;html=1;exitX=1;exitY=0.5;exitDx=0;exitDy=0;entryX=0;entryY=0.5;entryDx=0;entryDy=0;" parent="1" source="kWRuAzzF74EICB1AyUhk-50" target="kWRuAzzF74EICB1AyUhk-137" edge="1">
          <mxGeometry relative="1" as="geometry" />
        </mxCell>
        <mxCell id="kWRuAzzF74EICB1AyUhk-147" style="edgeStyle=orthogonalEdgeStyle;rounded=1;orthogonalLoop=1;jettySize=auto;html=1;exitX=1;exitY=0.5;exitDx=0;exitDy=0;entryX=0;entryY=0.5;entryDx=0;entryDy=0;" parent="1" source="kWRuAzzF74EICB1AyUhk-50" target="kWRuAzzF74EICB1AyUhk-146" edge="1">
          <mxGeometry relative="1" as="geometry" />
        </mxCell>
        <mxCell id="kWRuAzzF74EICB1AyUhk-50" value="Поле Номер Телефона" style="text;html=1;strokeColor=none;fillColor=none;align=left;verticalAlign=middle;whiteSpace=wrap;rounded=0;" parent="1" vertex="1">
          <mxGeometry x="430" y="1020" width="60" height="30" as="geometry" />
        </mxCell>
        <mxCell id="kWRuAzzF74EICB1AyUhk-51" value="Буквы русского алфавита" style="text;html=1;strokeColor=none;fillColor=none;align=left;verticalAlign=middle;whiteSpace=wrap;rounded=0;" parent="1" vertex="1">
          <mxGeometry x="540" y="160" width="100" height="30" as="geometry" />
        </mxCell>
        <mxCell id="kWRuAzzF74EICB1AyUhk-52" value="Буквы английского алфавита" style="text;html=1;strokeColor=none;fillColor=none;align=left;verticalAlign=middle;whiteSpace=wrap;rounded=0;" parent="1" vertex="1">
          <mxGeometry x="540" y="200" width="110" height="30" as="geometry" />
        </mxCell>
        <mxCell id="kWRuAzzF74EICB1AyUhk-53" value="Цифры" style="text;html=1;strokeColor=none;fillColor=none;align=left;verticalAlign=middle;whiteSpace=wrap;rounded=0;" parent="1" vertex="1">
          <mxGeometry x="540" y="720" width="60" height="30" as="geometry" />
        </mxCell>
        <mxCell id="kWRuAzzF74EICB1AyUhk-54" value="Тире" style="text;html=1;strokeColor=none;fillColor=none;align=left;verticalAlign=middle;whiteSpace=wrap;rounded=0;" parent="1" vertex="1">
          <mxGeometry x="540" y="770" width="60" height="20" as="geometry" />
        </mxCell>
        <mxCell id="kWRuAzzF74EICB1AyUhk-55" value="Точка" style="text;html=1;strokeColor=none;fillColor=none;align=left;verticalAlign=middle;whiteSpace=wrap;rounded=0;" parent="1" vertex="1">
          <mxGeometry x="540" y="800" width="60" height="30" as="geometry" />
        </mxCell>
        <mxCell id="kWRuAzzF74EICB1AyUhk-56" value="Знак @" style="text;html=1;strokeColor=none;fillColor=none;align=left;verticalAlign=middle;whiteSpace=wrap;rounded=0;" parent="1" vertex="1">
          <mxGeometry x="540" y="840" width="60" height="30" as="geometry" />
        </mxCell>
        <mxCell id="kWRuAzzF74EICB1AyUhk-57" value="Цифры" style="text;html=1;strokeColor=none;fillColor=none;align=left;verticalAlign=middle;whiteSpace=wrap;rounded=0;" parent="1" vertex="1">
          <mxGeometry x="560" y="980" width="60" height="30" as="geometry" />
        </mxCell>
        <mxCell id="kWRuAzzF74EICB1AyUhk-58" value="Знак +" style="text;html=1;strokeColor=none;fillColor=none;align=left;verticalAlign=middle;whiteSpace=wrap;rounded=0;" parent="1" vertex="1">
          <mxGeometry x="560" y="1020" width="60" height="30" as="geometry" />
        </mxCell>
        <mxCell id="kWRuAzzF74EICB1AyUhk-59" value="+7 в начале" style="text;html=1;strokeColor=none;fillColor=none;align=left;verticalAlign=middle;whiteSpace=wrap;rounded=0;" parent="1" vertex="1">
          <mxGeometry x="560" y="1060" width="60" height="30" as="geometry" />
        </mxCell>
        <mxCell id="kWRuAzzF74EICB1AyUhk-65" value="Буквы русского алфавита" style="text;html=1;strokeColor=none;fillColor=none;align=left;verticalAlign=middle;whiteSpace=wrap;rounded=0;" parent="1" vertex="1">
          <mxGeometry x="535" y="310" width="95" height="30" as="geometry" />
        </mxCell>
        <mxCell id="kWRuAzzF74EICB1AyUhk-66" value="Буквы английского алфавита" style="text;html=1;strokeColor=none;fillColor=none;align=left;verticalAlign=middle;whiteSpace=wrap;rounded=0;" parent="1" vertex="1">
          <mxGeometry x="535" y="360" width="115" height="30" as="geometry" />
        </mxCell>
        <mxCell id="kWRuAzzF74EICB1AyUhk-67" value="Буквы русского алфавита" style="text;html=1;strokeColor=none;fillColor=none;align=left;verticalAlign=middle;whiteSpace=wrap;rounded=0;" parent="1" vertex="1">
          <mxGeometry x="535" y="490" width="95" height="30" as="geometry" />
        </mxCell>
        <mxCell id="kWRuAzzF74EICB1AyUhk-68" value="Буквы английского алфавита" style="text;html=1;strokeColor=none;fillColor=none;align=left;verticalAlign=middle;whiteSpace=wrap;rounded=0;" parent="1" vertex="1">
          <mxGeometry x="535" y="540" width="115" height="30" as="geometry" />
        </mxCell>
        <mxCell id="kWRuAzzF74EICB1AyUhk-69" value="Буквы английского алфавита" style="text;html=1;strokeColor=none;fillColor=none;align=left;verticalAlign=middle;whiteSpace=wrap;rounded=0;" parent="1" vertex="1">
          <mxGeometry x="540" y="680" width="110" height="30" as="geometry" />
        </mxCell>
        <mxCell id="kWRuAzzF74EICB1AyUhk-93" style="edgeStyle=orthogonalEdgeStyle;rounded=1;orthogonalLoop=1;jettySize=auto;html=1;exitX=1;exitY=0.5;exitDx=0;exitDy=0;entryX=0;entryY=0.5;entryDx=0;entryDy=0;" parent="1" source="kWRuAzzF74EICB1AyUhk-88" target="kWRuAzzF74EICB1AyUhk-89" edge="1">
          <mxGeometry relative="1" as="geometry" />
        </mxCell>
        <mxCell id="kWRuAzzF74EICB1AyUhk-94" style="edgeStyle=orthogonalEdgeStyle;rounded=1;orthogonalLoop=1;jettySize=auto;html=1;exitX=1;exitY=0.5;exitDx=0;exitDy=0;entryX=0;entryY=0.5;entryDx=0;entryDy=0;" parent="1" source="kWRuAzzF74EICB1AyUhk-88" target="kWRuAzzF74EICB1AyUhk-90" edge="1">
          <mxGeometry relative="1" as="geometry" />
        </mxCell>
        <mxCell id="kWRuAzzF74EICB1AyUhk-95" style="edgeStyle=orthogonalEdgeStyle;rounded=1;orthogonalLoop=1;jettySize=auto;html=1;exitX=1;exitY=0.5;exitDx=0;exitDy=0;entryX=0;entryY=0.5;entryDx=0;entryDy=0;" parent="1" source="kWRuAzzF74EICB1AyUhk-88" target="kWRuAzzF74EICB1AyUhk-91" edge="1">
          <mxGeometry relative="1" as="geometry" />
        </mxCell>
        <mxCell id="kWRuAzzF74EICB1AyUhk-88" value="Количество символов" style="text;html=1;strokeColor=none;fillColor=none;align=center;verticalAlign=middle;whiteSpace=wrap;rounded=0;" parent="1" vertex="1">
          <mxGeometry x="540" y="240" width="60" height="30" as="geometry" />
        </mxCell>
        <mxCell id="kWRuAzzF74EICB1AyUhk-89" value="Менее 2" style="text;html=1;strokeColor=none;fillColor=none;align=left;verticalAlign=middle;whiteSpace=wrap;rounded=0;" parent="1" vertex="1">
          <mxGeometry x="650" y="210" width="60" height="30" as="geometry" />
        </mxCell>
        <mxCell id="kWRuAzzF74EICB1AyUhk-90" value="От 2 до 25" style="text;html=1;strokeColor=none;fillColor=none;align=left;verticalAlign=middle;whiteSpace=wrap;rounded=0;" parent="1" vertex="1">
          <mxGeometry x="650" y="240" width="70" height="30" as="geometry" />
        </mxCell>
        <mxCell id="kWRuAzzF74EICB1AyUhk-91" value="Более 25" style="text;html=1;strokeColor=none;fillColor=none;align=left;verticalAlign=middle;whiteSpace=wrap;rounded=0;" parent="1" vertex="1">
          <mxGeometry x="650" y="270" width="60" height="30" as="geometry" />
        </mxCell>
        <mxCell id="kWRuAzzF74EICB1AyUhk-113" style="edgeStyle=orthogonalEdgeStyle;rounded=1;orthogonalLoop=1;jettySize=auto;html=1;exitX=1;exitY=0.5;exitDx=0;exitDy=0;entryX=0;entryY=0.5;entryDx=0;entryDy=0;" parent="1" source="kWRuAzzF74EICB1AyUhk-116" target="kWRuAzzF74EICB1AyUhk-119" edge="1">
          <mxGeometry relative="1" as="geometry" />
        </mxCell>
        <mxCell id="kWRuAzzF74EICB1AyUhk-114" style="edgeStyle=orthogonalEdgeStyle;rounded=1;orthogonalLoop=1;jettySize=auto;html=1;exitX=1;exitY=0.5;exitDx=0;exitDy=0;entryX=0;entryY=0.5;entryDx=0;entryDy=0;" parent="1" source="kWRuAzzF74EICB1AyUhk-116" target="kWRuAzzF74EICB1AyUhk-117" edge="1">
          <mxGeometry relative="1" as="geometry" />
        </mxCell>
        <mxCell id="kWRuAzzF74EICB1AyUhk-115" style="edgeStyle=orthogonalEdgeStyle;rounded=1;orthogonalLoop=1;jettySize=auto;html=1;exitX=1;exitY=0.5;exitDx=0;exitDy=0;entryX=0;entryY=0.5;entryDx=0;entryDy=0;" parent="1" source="kWRuAzzF74EICB1AyUhk-116" target="kWRuAzzF74EICB1AyUhk-118" edge="1">
          <mxGeometry relative="1" as="geometry" />
        </mxCell>
        <mxCell id="kWRuAzzF74EICB1AyUhk-116" value="Количество символов" style="text;html=1;strokeColor=none;fillColor=none;align=center;verticalAlign=middle;whiteSpace=wrap;rounded=0;" parent="1" vertex="1">
          <mxGeometry x="535" y="405" width="60" height="30" as="geometry" />
        </mxCell>
        <mxCell id="kWRuAzzF74EICB1AyUhk-117" value="От 2 до 25" style="text;html=1;strokeColor=none;fillColor=none;align=left;verticalAlign=middle;whiteSpace=wrap;rounded=0;" parent="1" vertex="1">
          <mxGeometry x="650" y="405" width="70" height="30" as="geometry" />
        </mxCell>
        <mxCell id="kWRuAzzF74EICB1AyUhk-118" value="Более 25" style="text;html=1;strokeColor=none;fillColor=none;align=left;verticalAlign=middle;whiteSpace=wrap;rounded=0;" parent="1" vertex="1">
          <mxGeometry x="650" y="435" width="60" height="30" as="geometry" />
        </mxCell>
        <mxCell id="kWRuAzzF74EICB1AyUhk-119" value="Менее 2" style="text;html=1;strokeColor=none;fillColor=none;align=left;verticalAlign=middle;whiteSpace=wrap;rounded=0;" parent="1" vertex="1">
          <mxGeometry x="650" y="375" width="60" height="30" as="geometry" />
        </mxCell>
        <mxCell id="kWRuAzzF74EICB1AyUhk-120" style="edgeStyle=orthogonalEdgeStyle;rounded=1;orthogonalLoop=1;jettySize=auto;html=1;exitX=1;exitY=0.5;exitDx=0;exitDy=0;entryX=0;entryY=0.5;entryDx=0;entryDy=0;" parent="1" source="kWRuAzzF74EICB1AyUhk-123" target="kWRuAzzF74EICB1AyUhk-126" edge="1">
          <mxGeometry relative="1" as="geometry" />
        </mxCell>
        <mxCell id="kWRuAzzF74EICB1AyUhk-121" style="edgeStyle=orthogonalEdgeStyle;rounded=1;orthogonalLoop=1;jettySize=auto;html=1;exitX=1;exitY=0.5;exitDx=0;exitDy=0;entryX=0;entryY=0.5;entryDx=0;entryDy=0;" parent="1" source="kWRuAzzF74EICB1AyUhk-123" target="kWRuAzzF74EICB1AyUhk-124" edge="1">
          <mxGeometry relative="1" as="geometry" />
        </mxCell>
        <mxCell id="kWRuAzzF74EICB1AyUhk-122" style="edgeStyle=orthogonalEdgeStyle;rounded=1;orthogonalLoop=1;jettySize=auto;html=1;exitX=1;exitY=0.5;exitDx=0;exitDy=0;entryX=0;entryY=0.5;entryDx=0;entryDy=0;" parent="1" source="kWRuAzzF74EICB1AyUhk-123" target="kWRuAzzF74EICB1AyUhk-125" edge="1">
          <mxGeometry relative="1" as="geometry" />
        </mxCell>
        <mxCell id="kWRuAzzF74EICB1AyUhk-123" value="Количество символов" style="text;html=1;strokeColor=none;fillColor=none;align=center;verticalAlign=middle;whiteSpace=wrap;rounded=0;" parent="1" vertex="1">
          <mxGeometry x="535" y="600" width="60" height="30" as="geometry" />
        </mxCell>
        <mxCell id="kWRuAzzF74EICB1AyUhk-124" value="От 2 до 25" style="text;html=1;strokeColor=none;fillColor=none;align=left;verticalAlign=middle;whiteSpace=wrap;rounded=0;" parent="1" vertex="1">
          <mxGeometry x="660" y="600" width="70" height="30" as="geometry" />
        </mxCell>
        <mxCell id="kWRuAzzF74EICB1AyUhk-125" value="Более 25" style="text;html=1;strokeColor=none;fillColor=none;align=left;verticalAlign=middle;whiteSpace=wrap;rounded=0;" parent="1" vertex="1">
          <mxGeometry x="660" y="630" width="60" height="30" as="geometry" />
        </mxCell>
        <mxCell id="kWRuAzzF74EICB1AyUhk-126" value="Менее 2" style="text;html=1;strokeColor=none;fillColor=none;align=left;verticalAlign=middle;whiteSpace=wrap;rounded=0;" parent="1" vertex="1">
          <mxGeometry x="660" y="570" width="60" height="30" as="geometry" />
        </mxCell>
        <mxCell id="kWRuAzzF74EICB1AyUhk-127" style="edgeStyle=orthogonalEdgeStyle;rounded=1;orthogonalLoop=1;jettySize=auto;html=1;exitX=1;exitY=0.5;exitDx=0;exitDy=0;entryX=0;entryY=0.5;entryDx=0;entryDy=0;" parent="1" source="kWRuAzzF74EICB1AyUhk-130" target="kWRuAzzF74EICB1AyUhk-133" edge="1">
          <mxGeometry relative="1" as="geometry" />
        </mxCell>
        <mxCell id="kWRuAzzF74EICB1AyUhk-128" style="edgeStyle=orthogonalEdgeStyle;rounded=1;orthogonalLoop=1;jettySize=auto;html=1;exitX=1;exitY=0.5;exitDx=0;exitDy=0;entryX=0;entryY=0.5;entryDx=0;entryDy=0;" parent="1" source="kWRuAzzF74EICB1AyUhk-130" target="kWRuAzzF74EICB1AyUhk-131" edge="1">
          <mxGeometry relative="1" as="geometry">
            <mxPoint x="635" y="895" as="targetPoint" />
          </mxGeometry>
        </mxCell>
        <mxCell id="kWRuAzzF74EICB1AyUhk-129" style="edgeStyle=orthogonalEdgeStyle;rounded=1;orthogonalLoop=1;jettySize=auto;html=1;exitX=1;exitY=0.5;exitDx=0;exitDy=0;entryX=0;entryY=0.5;entryDx=0;entryDy=0;" parent="1" source="kWRuAzzF74EICB1AyUhk-130" target="kWRuAzzF74EICB1AyUhk-132" edge="1">
          <mxGeometry relative="1" as="geometry" />
        </mxCell>
        <mxCell id="kWRuAzzF74EICB1AyUhk-130" value="Количество символов" style="text;html=1;strokeColor=none;fillColor=none;align=left;verticalAlign=middle;whiteSpace=wrap;rounded=0;" parent="1" vertex="1">
          <mxGeometry x="540" y="880" width="60" height="30" as="geometry" />
        </mxCell>
        <mxCell id="kWRuAzzF74EICB1AyUhk-131" value="От 5 до 50" style="text;html=1;strokeColor=none;fillColor=none;align=left;verticalAlign=middle;whiteSpace=wrap;rounded=0;" parent="1" vertex="1">
          <mxGeometry x="640" y="880" width="70" height="30" as="geometry" />
        </mxCell>
        <mxCell id="kWRuAzzF74EICB1AyUhk-132" value="Более 50" style="text;html=1;strokeColor=none;fillColor=none;align=left;verticalAlign=middle;whiteSpace=wrap;rounded=0;" parent="1" vertex="1">
          <mxGeometry x="640" y="910" width="60" height="30" as="geometry" />
        </mxCell>
        <mxCell id="kWRuAzzF74EICB1AyUhk-133" value="Менее 5" style="text;html=1;strokeColor=none;fillColor=none;align=left;verticalAlign=middle;whiteSpace=wrap;rounded=0;" parent="1" vertex="1">
          <mxGeometry x="640" y="850" width="60" height="30" as="geometry" />
        </mxCell>
        <mxCell id="kWRuAzzF74EICB1AyUhk-134" style="edgeStyle=orthogonalEdgeStyle;rounded=1;orthogonalLoop=1;jettySize=auto;html=1;exitX=1;exitY=0.5;exitDx=0;exitDy=0;entryX=0;entryY=0.5;entryDx=0;entryDy=0;" parent="1" source="kWRuAzzF74EICB1AyUhk-137" target="kWRuAzzF74EICB1AyUhk-140" edge="1">
          <mxGeometry relative="1" as="geometry" />
        </mxCell>
        <mxCell id="kWRuAzzF74EICB1AyUhk-135" style="edgeStyle=orthogonalEdgeStyle;rounded=1;orthogonalLoop=1;jettySize=auto;html=1;exitX=1;exitY=0.5;exitDx=0;exitDy=0;entryX=0;entryY=0.5;entryDx=0;entryDy=0;" parent="1" source="kWRuAzzF74EICB1AyUhk-137" target="kWRuAzzF74EICB1AyUhk-138" edge="1">
          <mxGeometry relative="1" as="geometry" />
        </mxCell>
        <mxCell id="kWRuAzzF74EICB1AyUhk-136" style="edgeStyle=orthogonalEdgeStyle;rounded=1;orthogonalLoop=1;jettySize=auto;html=1;exitX=1;exitY=0.5;exitDx=0;exitDy=0;entryX=0;entryY=0.5;entryDx=0;entryDy=0;" parent="1" source="kWRuAzzF74EICB1AyUhk-137" target="kWRuAzzF74EICB1AyUhk-139" edge="1">
          <mxGeometry relative="1" as="geometry" />
        </mxCell>
        <mxCell id="kWRuAzzF74EICB1AyUhk-137" value="Количество символов" style="text;html=1;strokeColor=none;fillColor=none;align=left;verticalAlign=middle;whiteSpace=wrap;rounded=0;" parent="1" vertex="1">
          <mxGeometry x="560" y="1180" width="60" height="30" as="geometry" />
        </mxCell>
        <mxCell id="kWRuAzzF74EICB1AyUhk-138" value="От 10 до 12" style="text;html=1;strokeColor=none;fillColor=none;align=left;verticalAlign=middle;whiteSpace=wrap;rounded=0;" parent="1" vertex="1">
          <mxGeometry x="670" y="1180" width="70" height="30" as="geometry" />
        </mxCell>
        <mxCell id="kWRuAzzF74EICB1AyUhk-139" value="Более 12" style="text;html=1;strokeColor=none;fillColor=none;align=left;verticalAlign=middle;whiteSpace=wrap;rounded=0;" parent="1" vertex="1">
          <mxGeometry x="670" y="1210" width="60" height="30" as="geometry" />
        </mxCell>
        <mxCell id="kWRuAzzF74EICB1AyUhk-140" value="Менее 10" style="text;html=1;strokeColor=none;fillColor=none;align=left;verticalAlign=middle;whiteSpace=wrap;rounded=0;" parent="1" vertex="1">
          <mxGeometry x="670" y="1150" width="60" height="30" as="geometry" />
        </mxCell>
        <mxCell id="kWRuAzzF74EICB1AyUhk-146" value="Скобки после &quot;+7&quot;" style="text;html=1;strokeColor=none;fillColor=none;align=left;verticalAlign=middle;whiteSpace=wrap;rounded=0;" parent="1" vertex="1">
          <mxGeometry x="560" y="1120" width="70" height="30" as="geometry" />
        </mxCell>
        <mxCell id="OT8h6ND0oOC6i0YVm0AJ-10" style="edgeStyle=orthogonalEdgeStyle;rounded=1;orthogonalLoop=1;jettySize=auto;html=1;exitX=1;exitY=0.5;exitDx=0;exitDy=0;entryX=0;entryY=0.5;entryDx=0;entryDy=0;" edge="1" parent="1" source="OT8h6ND0oOC6i0YVm0AJ-1" target="OT8h6ND0oOC6i0YVm0AJ-5">
          <mxGeometry relative="1" as="geometry" />
        </mxCell>
        <mxCell id="OT8h6ND0oOC6i0YVm0AJ-11" style="edgeStyle=orthogonalEdgeStyle;rounded=1;orthogonalLoop=1;jettySize=auto;html=1;exitX=1;exitY=0.5;exitDx=0;exitDy=0;entryX=0;entryY=0.5;entryDx=0;entryDy=0;" edge="1" parent="1" source="OT8h6ND0oOC6i0YVm0AJ-1" target="OT8h6ND0oOC6i0YVm0AJ-6">
          <mxGeometry relative="1" as="geometry" />
        </mxCell>
        <mxCell id="OT8h6ND0oOC6i0YVm0AJ-12" style="edgeStyle=orthogonalEdgeStyle;rounded=1;orthogonalLoop=1;jettySize=auto;html=1;exitX=1;exitY=0.5;exitDx=0;exitDy=0;entryX=0;entryY=0.5;entryDx=0;entryDy=0;" edge="1" parent="1" source="OT8h6ND0oOC6i0YVm0AJ-1" target="OT8h6ND0oOC6i0YVm0AJ-7">
          <mxGeometry relative="1" as="geometry" />
        </mxCell>
        <mxCell id="OT8h6ND0oOC6i0YVm0AJ-13" style="edgeStyle=orthogonalEdgeStyle;rounded=1;orthogonalLoop=1;jettySize=auto;html=1;exitX=1;exitY=0.5;exitDx=0;exitDy=0;entryX=0;entryY=0.5;entryDx=0;entryDy=0;" edge="1" parent="1" source="OT8h6ND0oOC6i0YVm0AJ-1" target="OT8h6ND0oOC6i0YVm0AJ-8">
          <mxGeometry relative="1" as="geometry" />
        </mxCell>
        <mxCell id="OT8h6ND0oOC6i0YVm0AJ-14" style="edgeStyle=orthogonalEdgeStyle;rounded=1;orthogonalLoop=1;jettySize=auto;html=1;exitX=1;exitY=0.5;exitDx=0;exitDy=0;entryX=0;entryY=0.5;entryDx=0;entryDy=0;" edge="1" parent="1" source="OT8h6ND0oOC6i0YVm0AJ-1" target="OT8h6ND0oOC6i0YVm0AJ-9">
          <mxGeometry relative="1" as="geometry" />
        </mxCell>
        <mxCell id="OT8h6ND0oOC6i0YVm0AJ-1" value="Корректность заполнения полей" style="text;html=1;strokeColor=none;fillColor=none;align=left;verticalAlign=middle;whiteSpace=wrap;rounded=0;" vertex="1" parent="1">
          <mxGeometry x="440" y="1280" width="60" height="30" as="geometry" />
        </mxCell>
        <mxCell id="OT8h6ND0oOC6i0YVm0AJ-19" style="edgeStyle=orthogonalEdgeStyle;rounded=1;orthogonalLoop=1;jettySize=auto;html=1;exitX=1;exitY=0.5;exitDx=0;exitDy=0;entryX=0;entryY=0.5;entryDx=0;entryDy=0;" edge="1" parent="1" source="OT8h6ND0oOC6i0YVm0AJ-2" target="OT8h6ND0oOC6i0YVm0AJ-15">
          <mxGeometry relative="1" as="geometry" />
        </mxCell>
        <mxCell id="OT8h6ND0oOC6i0YVm0AJ-20" style="edgeStyle=orthogonalEdgeStyle;rounded=1;orthogonalLoop=1;jettySize=auto;html=1;exitX=1;exitY=0.5;exitDx=0;exitDy=0;entryX=0;entryY=0.5;entryDx=0;entryDy=0;" edge="1" parent="1" source="OT8h6ND0oOC6i0YVm0AJ-2" target="OT8h6ND0oOC6i0YVm0AJ-16">
          <mxGeometry relative="1" as="geometry" />
        </mxCell>
        <mxCell id="OT8h6ND0oOC6i0YVm0AJ-2" value="Уникальность данных" style="text;html=1;strokeColor=none;fillColor=none;align=left;verticalAlign=middle;whiteSpace=wrap;rounded=0;" vertex="1" parent="1">
          <mxGeometry x="440" y="1430" width="60" height="30" as="geometry" />
        </mxCell>
        <mxCell id="OT8h6ND0oOC6i0YVm0AJ-5" value="Поле Имя" style="text;html=1;strokeColor=none;fillColor=none;align=left;verticalAlign=middle;whiteSpace=wrap;rounded=0;" vertex="1" parent="1">
          <mxGeometry x="560" y="1250" width="70" height="30" as="geometry" />
        </mxCell>
        <mxCell id="OT8h6ND0oOC6i0YVm0AJ-6" value="Поле Фамилия" style="text;html=1;strokeColor=none;fillColor=none;align=left;verticalAlign=middle;whiteSpace=wrap;rounded=0;" vertex="1" parent="1">
          <mxGeometry x="560" y="1280" width="90" height="30" as="geometry" />
        </mxCell>
        <mxCell id="OT8h6ND0oOC6i0YVm0AJ-7" value="Поле Отчество" style="text;html=1;strokeColor=none;fillColor=none;align=left;verticalAlign=middle;whiteSpace=wrap;rounded=0;" vertex="1" parent="1">
          <mxGeometry x="560" y="1310" width="90" height="30" as="geometry" />
        </mxCell>
        <mxCell id="OT8h6ND0oOC6i0YVm0AJ-8" value="Поле Email" style="text;html=1;strokeColor=none;fillColor=none;align=left;verticalAlign=middle;whiteSpace=wrap;rounded=0;" vertex="1" parent="1">
          <mxGeometry x="560" y="1340" width="80" height="30" as="geometry" />
        </mxCell>
        <mxCell id="OT8h6ND0oOC6i0YVm0AJ-9" value="Поле Номер Телефона" style="text;html=1;strokeColor=none;fillColor=none;align=left;verticalAlign=middle;whiteSpace=wrap;rounded=0;" vertex="1" parent="1">
          <mxGeometry x="560" y="1370" width="90" height="30" as="geometry" />
        </mxCell>
        <mxCell id="OT8h6ND0oOC6i0YVm0AJ-15" value="Поле Email" style="text;html=1;strokeColor=none;fillColor=none;align=left;verticalAlign=middle;whiteSpace=wrap;rounded=0;" vertex="1" parent="1">
          <mxGeometry x="560" y="1405" width="80" height="30" as="geometry" />
        </mxCell>
        <mxCell id="OT8h6ND0oOC6i0YVm0AJ-16" value="Поле Номер Телефона" style="text;html=1;strokeColor=none;fillColor=none;align=left;verticalAlign=middle;whiteSpace=wrap;rounded=0;" vertex="1" parent="1">
          <mxGeometry x="560" y="1450" width="90" height="30" as="geometry" />
        </mxCell>
      </root>
    </mxGraphModel>
  </diagram>
</mxfile>
